<svg width="200" height="200" viewBox="0 0 200 200" fill="none" xmlns="http://www.w3.org/2000/svg">
<g clip-path="url(#clip0_6_35)">
<mask id="mask0_6_35" style="mask-type:luminance" maskUnits="userSpaceOnUse" x="31" y="4" width="138" height="193">
<path d="M168.3 4H31V196.714H168.3V4Z" fill="white"/>
</mask>
<g mask="url(#mask0_6_35)">
<path d="M111.417 126.67C104.675 131.038 98.2103 135.82 92.0609 140.989C87.4432 145.04 83.4143 149.716 80.0909 154.882C70.6969 169.582 72.0519 179.994 84.6329 196.713C46.4229 191.67 17.2229 140.352 37.7909 112.889C38.3689 126.684 43.2449 137.005 58.0909 141.228C56.6609 136.77 55.2909 133.14 54.3349 129.41C50.6149 114.755 52.8799 100.8 59.5809 87.429C61.5959 83.414 63.5379 79.341 65.8719 75.517C73.2719 63.44 76.9209 50.658 72.8549 35.817C86.6409 45.163 87.8619 56.924 78.9999 90.273C95.6499 82.312 103.136 68.851 105.92 52.313C108.657 36.054 105.12 20.561 97.1469 4C114.747 16.18 125.019 31.3 130.597 49.17C133.733 59.5637 135.438 70.336 135.666 81.19C136.201 100.539 127.552 115.745 111.417 126.677V126.67ZM167.101 113.07C164.985 97.712 159.088 83.718 150.195 70.896C153.902 99.931 144.482 123.025 120.621 140.096C117.424 142.521 114.617 145.422 112.298 148.696C107.572 155.052 108.032 161.296 114.272 169.514C118.788 164.437 123.072 159.614 127.587 154.542C133.377 169.675 130.082 183.042 119.675 196.057C133.111 193.324 145.108 185.831 153.459 174.957C167.939 156.612 170.172 135.299 167.102 113.067L167.101 113.07Z" fill="white"/>
</g>
</g>
<defs>
<clipPath id="clip0_6_35">
<rect width="137.3" height="192.714" fill="white" transform="translate(31 4)"/>
</clipPath>
</defs>
</svg>
