<svg xmlns="http://www.w3.org/2000/svg" xmlns:xlink="http://www.w3.org/1999/xlink" width="329.231" height="287.045" viewBox="0 0 329.231 287.045">
  <defs>
    <clipPath id="clip-path">
      <path id="Path_105" data-name="Path 105" d="M0-152.374H329.232V-439.419H0Z" transform="translate(0 439.419)" fill="none"/>
    </clipPath>
    <clipPath id="clip-path-2">
      <rect id="Rectangle_11" data-name="Rectangle 11" width="51.647" height="72.492" fill="#fff"/>
    </clipPath>
    <clipPath id="clip-path-3">
      <rect id="Rectangle_13" data-name="Rectangle 13" width="71.271" height="71.27" fill="#fff"/>
    </clipPath>
  </defs>
  <g id="Group_325" data-name="Group 325" transform="translate(-1329.822 -3897)">
    <g id="Group_265" data-name="Group 265" transform="translate(1329.822 4336.42)">
      <g id="Group_269" data-name="Group 269" transform="translate(0 -439.419)" clip-path="url(#clip-path)">
        <g id="Group_265-2" data-name="Group 265" transform="translate(5.832 4.166)">
          <path id="Path_101" data-name="Path 101" d="M-82.824,0h0a32.382,32.382,0,0,0-22.966,9.454L-234.1,136.866a16.092,16.092,0,0,0-3.519,17.586A16.266,16.266,0,0,0-222.6,164.4h19.3v.4H-82.824Z" transform="translate(238.848)" fill="#ff2c15"/>
        </g>
        <g id="Group_266" data-name="Group 266" transform="translate(161.857 4.166)">
          <path id="Path_102" data-name="Path 102" d="M-62.478-87.482v-.4h22.073A16.254,16.254,0,0,0-25.4-97.832a16.04,16.04,0,0,0-3.512-17.585l-33.914-33.652a18.351,18.351,0,0,0,.345-3.259v-44.491A21.485,21.485,0,0,0-84.05-218.234h-.129a21.433,21.433,0,0,0-21.437,19.924q0,6.719-.457,6.265l-3.361-3.337-47.777-47.446a32.385,32.385,0,0,0-22.965-9.454v164.8Z" transform="translate(180.176 252.283)" fill="#026bba"/>
        </g>
        <g id="Group_267" data-name="Group 267" transform="translate(41.378 168.967)">
          <path id="Path_103" data-name="Path 103" d="M0,0V82.868c0,33.02,27.277,35.008,60.792,35.008H117.7c.723.067-.138.063-1.444.041-.443.026-.936.056,4.223.064V0ZM114.041,117.876l2.214.041c.365-.022.7-.041-2.214-.041m6.437.159c-1.833.039-3.35.068,0,.01Z" fill="#ffc633"/>
        </g>
        <g id="Group_268" data-name="Group 268" transform="translate(161.856 168.967)">
          <path id="Path_104" data-name="Path 104" d="M-62.478-43.99v-82.868h-117.7V-8.877l1.338-.014c.029-.018,2.808-.045,3-.03l2.1-.061h48.2c34.172,0,63.065-2.538,63.065-35.008m-116.359,35.1c-.01.006.265.01.99.013.622-.018.591-.028-.99-.013m1.5.014h-.51c-.51.015-1.452.036-2.329.054v.011l1.288-.022c7.519-.13,6.069-.146,2.914-.076-.2.008-.621.018-1.363.033m0,0,1.363-.033c.127,0,.167-.008.136-.01Z" transform="translate(180.176 126.858)" fill="#8e8e8e"/>
        </g>
      </g>
      <path id="Path_106" data-name="Path 106" d="M241.795-152.375h8.333V-439.42h-8.333Z" transform="translate(-83.846 0)" fill="#fff"/>
      <path id="Path_107" data-name="Path 107" d="M0-185.181H329.232v-8.333H0Z" transform="translate(0 -85.271)" fill="#fff"/>
    </g>
    <g id="Group_322" data-name="Group 322" transform="translate(1366.125 3956.362)">
      <g id="Group_21" data-name="Group 21" transform="translate(38.547 11.669)">
        <g id="Group_20" data-name="Group 20" clip-path="url(#clip-path-2)">
          <path id="Path_20" data-name="Path 20" d="M30.25,46.144a73,73,0,0,0-7.281,5.386,24.8,24.8,0,0,0-4.5,5.226c-3.534,5.529-3.024,9.446,1.708,15.736C5.8,70.6-5.183,51.291,2.554,40.961c.217,5.189,2.052,9.072,7.637,10.66-.538-1.677-1.054-3.042-1.413-4.446a22.113,22.113,0,0,1,1.973-15.792c.758-1.51,1.489-3.042,2.367-4.481,2.785-4.543,4.156-9.351,2.627-14.933,5.186,3.515,5.645,7.939,2.313,20.484,6.262-2.995,9.078-8.058,10.125-14.279,1.029-6.116-.3-11.944-3.3-18.174A31.255,31.255,0,0,1,37.465,16.991a44.971,44.971,0,0,1,1.907,12.045c.2,7.279-3.052,13-9.122,17.111ZM51.2,41.028a36.293,36.293,0,0,0-6.359-15.864c1.394,10.922-2.149,19.609-11.125,26.031a14.8,14.8,0,0,0-3.131,3.235c-1.778,2.391-1.6,4.741.743,7.831l5.009-5.632c2.178,5.692.938,10.72-2.976,15.616a21.4,21.4,0,0,0,12.708-7.938c5.447-6.9,6.287-14.918,5.132-23.281Z" transform="translate(0)" fill="#fff"/>
        </g>
      </g>
    </g>
    <g id="Group_323" data-name="Group 323" transform="translate(1490.35 3938.335)">
      <g id="Group_25" data-name="Group 25" transform="translate(23.15 30.917)">
        <g id="Group_24" data-name="Group 24" transform="translate(0 0)" clip-path="url(#clip-path-3)">
          <path id="Path_22" data-name="Path 22" d="M41.285,39.543A14.832,14.832,0,0,0,56.116,24.712C56.116,14.426,41.285,0,41.285,0S26.453,14.463,26.453,24.712A14.834,14.834,0,0,0,41.285,39.543M32.34,25.485a1.209,1.209,0,0,1,1.461.934,8.04,8.04,0,0,0,7.533,6.391,1.243,1.243,0,0,1,1.18,1.29,1.23,1.23,0,0,1-1.228,1.168h-.05a10.492,10.492,0,0,1-9.843-8.332A1.223,1.223,0,0,1,32.34,25.485Z" transform="translate(-5.649 0)" fill="#fff"/>
          <path id="Path_23" data-name="Path 23" d="M0,65.507V85.26H71.271V65.507c-5.942,0-5.942,4.915-11.882,4.915s-5.942-4.915-11.882-4.915-5.938,4.915-11.877,4.915-5.942-4.915-11.879-4.915-5.938,4.915-11.877,4.915S5.938,65.507,0,65.507" transform="translate(0 -13.99)" fill="#fff"/>
        </g>
      </g>
    </g>
    <path id="Path_138" data-name="Path 138" d="M31.2,0V6.49L24.159,2.971,20.8,9.695l10.4,5.161V30.727L17.435,22.753l.7-11.572-7.428-.39-.468,7.818L4.613,15.324.86,21.814l5.629,3.206L0,29.4l4.066,6.177,9.617-6.333,13.761,7.9-13.761,7.9L4.065,38.7,0,44.879l6.489,4.378L.86,52.463l3.754,6.489,5.629-3.283.468,7.819,7.428-.392-.7-11.571L31.2,43.549V59.422l-10.4,5.16,3.361,6.725L31.2,67.788v6.489h7.428V67.788l6.959,3.518,3.363-6.725-10.321-5.16V43.549l13.683,7.976L51.6,63.1l7.428.392.47-7.819,5.629,3.283,3.752-6.489-5.629-3.206,6.489-4.378L65.676,38.7,56.06,45.035,42.3,37.138l13.762-7.9,9.616,6.333L69.742,29.4l-6.489-4.378,5.629-3.206L65.13,15.324,59.5,18.608l-.47-7.818-7.428.39.7,11.572L38.624,30.727V14.856L48.945,9.695,45.582,2.971,38.624,6.49V0Z" transform="translate(1395.624 4085.604)" fill="#fff" stroke="#ffc733" stroke-width="4"/>
    <g id="Group_324" data-name="Group 324" transform="translate(1479.716 4058.77)">
      <path id="Path_24" data-name="Path 24" d="M14.288,0,0,39.342H19.607L11.368,71.613l40-46.2H30.684L47.425,0Z" transform="translate(47.735 31.834)" fill="#fff"/>
    </g>
  </g>
</svg>
