<svg xmlns="http://www.w3.org/2000/svg" xmlns:xlink="http://www.w3.org/1999/xlink" width="28.826" height="28.825" viewBox="0 0 28.826 28.825">
  <defs>
    <clipPath id="clip-path">
      <path id="Path_125" data-name="Path 125" d="M0,0H28.826V-28.825H0Z" fill="none"/>
    </clipPath>
  </defs>
  <g id="Group_297" data-name="Group 297" transform="translate(0 28.825)" clip-path="url(#clip-path)">
    <g id="Group_294" data-name="Group 294" transform="translate(28.826 -14.412)">
      <path id="Path_122" data-name="Path 122" d="M0,0C0-3.914-.017-4.405-.087-5.943a10.564,10.564,0,0,0-.67-3.5,7.059,7.059,0,0,0-1.662-2.553,7.059,7.059,0,0,0-2.553-1.662,10.584,10.584,0,0,0-3.5-.67c-1.537-.071-2.028-.087-5.942-.087s-4.4.016-5.942.087a10.6,10.6,0,0,0-3.5.67,7.064,7.064,0,0,0-2.552,1.662,7.059,7.059,0,0,0-1.662,2.553,10.538,10.538,0,0,0-.67,3.5c-.071,1.538-.088,2.029-.088,5.943s.017,4.405.088,5.942a10.528,10.528,0,0,0,.67,3.5,7.051,7.051,0,0,0,1.662,2.553,7.054,7.054,0,0,0,2.552,1.663,10.6,10.6,0,0,0,3.5.669c1.537.071,2.027.087,5.942.087s4.4-.016,5.942-.087a10.587,10.587,0,0,0,3.5-.669,7.049,7.049,0,0,0,2.553-1.663A7.051,7.051,0,0,0-.757,9.44a10.553,10.553,0,0,0,.67-3.5C-.017,4.405,0,3.914,0,0M-2.6,0c0,3.848-.014,4.3-.084,5.824a7.984,7.984,0,0,1-.5,2.676,4.458,4.458,0,0,1-1.078,1.657,4.466,4.466,0,0,1-1.657,1.078,7.977,7.977,0,0,1-2.676.5c-1.52.069-1.976.084-5.824.084s-4.3-.015-5.825-.084a7.977,7.977,0,0,1-2.676-.5,4.454,4.454,0,0,1-1.656-1.078A4.448,4.448,0,0,1-25.648,8.5a8,8,0,0,1-.5-2.676c-.069-1.52-.084-1.976-.084-5.824s.015-4.3.084-5.824a8.016,8.016,0,0,1,.5-2.677,4.453,4.453,0,0,1,1.079-1.656,4.457,4.457,0,0,1,1.656-1.079,7.984,7.984,0,0,1,2.676-.5c1.52-.07,1.976-.084,5.825-.084s4.3.014,5.824.084a7.984,7.984,0,0,1,2.676.5,4.469,4.469,0,0,1,1.657,1.079A4.463,4.463,0,0,1-3.177-8.5a8,8,0,0,1,.5,2.677C-2.611-4.3-2.6-3.849-2.6,0" fill="#fff"/>
    </g>
    <g id="Group_295" data-name="Group 295" transform="translate(21.814 -14.412)">
      <path id="Path_123" data-name="Path 123" d="M0,0A7.4,7.4,0,0,0-7.4-7.4,7.4,7.4,0,0,0-14.8,0,7.4,7.4,0,0,0-7.4,7.4,7.4,7.4,0,0,0,0,0M-2.6,0A4.8,4.8,0,0,1-7.4,4.8,4.8,4.8,0,0,1-12.2,0,4.8,4.8,0,0,1-7.4-4.8,4.8,4.8,0,0,1-2.6,0" fill="#fff"/>
    </g>
    <g id="Group_296" data-name="Group 296" transform="translate(23.836 -22.106)">
      <path id="Path_124" data-name="Path 124" d="M0,0A1.729,1.729,0,0,1-1.729,1.729,1.73,1.73,0,0,1-3.459,0a1.731,1.731,0,0,1,1.73-1.73A1.73,1.73,0,0,1,0,0" fill="#fff"/>
    </g>
  </g>
</svg>
