<svg id="Group_275" data-name="Group 275" xmlns="http://www.w3.org/2000/svg" xmlns:xlink="http://www.w3.org/1999/xlink" width="107.878" height="89.003" viewBox="0 0 107.878 89.003">
  <defs>
    <clipPath id="clip-path">
      <rect id="Rectangle_98" data-name="Rectangle 98" width="107.878" height="89.003" fill="#fff"/>
    </clipPath>
  </defs>
  <g id="Group_274" data-name="Group 274" clip-path="url(#clip-path)">
    <path id="Path_110" data-name="Path 110" d="M44.294,0A26.393,26.393,0,0,0,17.9,26.394c0,7.519,6.6,19.182,12.123,27.622,3.529,5.524,6.752,9.668,8.44,11.816,4.45,5.678,4.911,5.678,5.831,5.678s1.381,0,5.831-5.524c1.688-2.148,4.911-6.445,8.44-11.816,5.524-8.44,12.123-20.1,12.123-27.775A26.393,26.393,0,0,0,44.294,0m0,66.445c-5.064-5.831-22.251-29.463-22.251-40.2a22.251,22.251,0,1,1,44.5,0c0,10.742-17.187,34.374-22.251,40.2" transform="translate(9.568)" fill="#fff"/>
    <path id="Path_111" data-name="Path 111" d="M39.162,8.2A11.56,11.56,0,0,0,27.5,19.862a11.662,11.662,0,1,0,23.325,0A11.467,11.467,0,0,0,39.162,8.2m0,19.182a7.519,7.519,0,0,1,0-15.038,7.435,7.435,0,0,1,7.519,7.519,7.531,7.531,0,0,1-7.519,7.519" transform="translate(14.7 4.383)" fill="#fff"/>
    <path id="Path_112" data-name="Path 112" d="M47.715,56.8c-5.985,0-36.215-.46-36.215-8.133,0-1.381,0-5.064,17.647-7.059a2.084,2.084,0,0,1,.46,4.143c-8.286.921-12.123,2.3-13.5,3.069,2.762,1.535,13.5,3.99,31.611,3.99s28.849-2.455,31.611-3.99c-1.228-.614-4.757-1.995-14.118-3.069a2.084,2.084,0,0,1,.46-4.143c16.113,1.841,18.261,4.6,18.261,7.059,0,7.673-30.077,8.133-36.215,8.133" transform="translate(6.147 22.23)" fill="#fff"/>
    <path id="Path_113" data-name="Path 113" d="M54.016,69.179C27.775,69.179,0,63.347,0,52.452,0,42.171,24.246,38.181,31.765,37.107a2.084,2.084,0,1,1,.46,4.143C13.811,43.705,3.99,48.769,3.99,52.452c0,5.217,19.028,12.583,49.872,12.583s49.872-7.366,49.872-12.583c0-3.683-9.514-8.593-27.622-11.049a2.058,2.058,0,0,1-1.688-2.3,1.948,1.948,0,0,1,2.3-1.688c7.366.921,31.151,4.911,31.151,15.192.153,10.742-27.622,16.573-53.862,16.573" transform="translate(0 19.825)" fill="#fff"/>
  </g>
</svg>
