<svg id="Group_366" data-name="Group 366" xmlns="http://www.w3.org/2000/svg" xmlns:xlink="http://www.w3.org/1999/xlink" width="121.176" height="137.449" viewBox="0 0 121.176 137.449">
  <defs>
    <clipPath id="clip-path">
      <rect id="Rectangle_139" data-name="Rectangle 139" width="121.176" height="137.449" fill="#db1600"/>
    </clipPath>
  </defs>
  <g id="Group_365" data-name="Group 365" clip-path="url(#clip-path)">
    <path id="Path_290" data-name="Path 290" d="M12.024,83.847A7.365,7.365,0,0,0,17.6,86.3a14.076,14.076,0,0,0,8.051-3.019C28.1,81.491,30.8,76.7,33.4,70.225c4.2-1.178,8.64-2.258,12.739-3.093A31.133,31.133,0,0,0,61.7,75.576a7.686,7.686,0,0,0,7.192-3.215A7.162,7.162,0,0,0,69.213,65c-1.006-1.89-3.755-5.081-10.9-5.13a69.632,69.632,0,0,0-10.382,1.2,41.446,41.446,0,0,1-7.609-11.364c.933-3.093,1.841-6.283,2.749-9.5l.933-3.191a17.144,17.144,0,0,0,.663-6.946c-.736-5.179-4.074-7.192-6.971-6.971-3.657.319-7.192,4.1-6.848,10.726a49.433,49.433,0,0,0,3.436,16.052c-1.89,6.161-3.608,11.364-5.179,15.561-7.363,2.283-13.843,4.909-16.126,7.363a8.124,8.124,0,0,0-.957,11.045M58.291,65.439c4.467,0,5.67,1.644,5.94,2.135a1.453,1.453,0,0,1,0,1.546,2.038,2.038,0,0,1-1.988.736,20.435,20.435,0,0,1-8.811-4.05,39.846,39.846,0,0,1,4.835-.368Zm-20.1-36.817h0c.123,0,.663.466.859,1.964a11.719,11.719,0,0,1-.491,4.663l-.933,3.264c-.123.442-.27.908-.393,1.374a48.081,48.081,0,0,1-.663-6.332c-.245-3.313,1.031-4.786,1.6-4.835Zm-.221,28.619A46.544,46.544,0,0,0,41.6,62.3c-1.914.417-3.853.884-5.792,1.374.761-2.062,1.424-4.222,2.16-6.431M17.105,76.754a28.608,28.608,0,0,1,9.253-4.418,17.426,17.426,0,0,1-4,6.283c-3.387,2.454-5.5,2.234-6.112,1.522s-.368-2.062.859-3.412Z" transform="translate(14.974 33.573)" fill="#db1600"/>
    <path id="Path_291" data-name="Path 291" d="M28.454,10.43H26v4.32h2.454a2.443,2.443,0,0,0,1.718-.466,2.455,2.455,0,0,0,0-3.191,2.458,2.458,0,0,0-1.718-.663" transform="translate(37.815 15.17)" fill="#db1600"/>
    <path id="Path_292" data-name="Path 292" d="M34.268,10.51H32.28V20.524h1.988a5.08,5.08,0,0,0,3.706-1.3A4.909,4.909,0,0,0,39.3,15.542a4.59,4.59,0,0,0-4.246-4.909,4.976,4.976,0,0,0-.663,0Z" transform="translate(46.949 15.286)" fill="#db1600"/>
    <path id="Path_293" data-name="Path 293" d="M110.45,13.843V0H27.809L0,28.447v109H110.45V48.205h10.726V13.843ZM26.385,8.468V21.28c0,3.264-3.682,5.719-6.75,5.719H8.3Zm79.156,5.375H42.634V48.205h62.907V132.54H4.909V31.908H19.636c5.522,0,11.659-4.369,11.659-10.628V4.909h74.247Zm-3.215,15.365v3.264H97.073v6.971h-4.2V22.262h11.217v3.363h-7.02v3.583ZM90.52,30.828a8.693,8.693,0,0,1-1.129,4.492,7.57,7.57,0,0,1-3.166,3.044,10.07,10.07,0,0,1-4.737,1.08H75.032V22.262h6.455a10.109,10.109,0,0,1,4.762,1.08,7.614,7.614,0,0,1,3.142,3.019,8.805,8.805,0,0,1,1.129,4.467M72.848,27.76a5.344,5.344,0,0,1-.687,2.724A5.057,5.057,0,0,1,70.05,32.5a7.376,7.376,0,0,1-3.534.761h-2.7v6.185h-4.1V22.262h6.8A7.863,7.863,0,0,1,70,22.974a4.766,4.766,0,0,1,2.135,1.964,5.782,5.782,0,0,1,.712,2.823" fill="#db1600"/>
  </g>
</svg>
