<svg xmlns="http://www.w3.org/2000/svg" xmlns:xlink="http://www.w3.org/1999/xlink" width="139.132" height="134.496" viewBox="0 0 139.132 134.496">
  <defs>
    <clipPath id="clip-path">
      <rect id="Rectangle_114" data-name="Rectangle 114" width="139.132" height="134.496" fill="#026bbb" stroke="#fff" stroke-width="1"/>
    </clipPath>
  </defs>
  <g id="Group_312" data-name="Group 312" clip-path="url(#clip-path)">
    <path id="Path_127" data-name="Path 127" d="M40.476,31.25H31.2a4.651,4.651,0,0,0-4.638,4.638v9.276A4.651,4.651,0,0,0,31.2,49.8h9.276a4.651,4.651,0,0,0,4.638-4.638V35.888a4.651,4.651,0,0,0-4.638-4.638M31.2,35.888h9.276v9.276H31.2Z" transform="translate(12.859 15.128)" fill="#026bbb" stroke="#fff" stroke-width="1"/>
    <path id="Path_128" data-name="Path 128" d="M49.951,49.8h9.276a4.651,4.651,0,0,0,4.638-4.638V35.888a4.651,4.651,0,0,0-4.638-4.638H49.951a4.651,4.651,0,0,0-4.638,4.638v9.276A4.651,4.651,0,0,0,49.951,49.8m0-13.913h9.276v9.276H49.951Z" transform="translate(21.936 15.128)" fill="#026bbb" stroke="#fff" stroke-width="1"/>
    <path id="Path_129" data-name="Path 129" d="M68.7,49.8h9.276a4.651,4.651,0,0,0,4.638-4.638V35.888a4.651,4.651,0,0,0-4.638-4.638H68.7a4.651,4.651,0,0,0-4.638,4.638v9.276A4.651,4.651,0,0,0,68.7,49.8m0-13.913h9.276v9.276H68.7Z" transform="translate(31.013 15.128)" fill="#026bbb" stroke="#fff" stroke-width="1"/>
    <path id="Path_130" data-name="Path 130" d="M21.726,31.25H12.451a4.651,4.651,0,0,0-4.638,4.638v9.276A4.651,4.651,0,0,0,12.451,49.8h9.276a4.651,4.651,0,0,0,4.638-4.638V35.888a4.651,4.651,0,0,0-4.638-4.638m-9.276,4.638h9.276v9.276H12.451Z" transform="translate(3.782 15.128)" fill="#026bbb" stroke="#fff" stroke-width="1"/>
    <path id="Path_131" data-name="Path 131" d="M40.476,48.437H31.2a4.651,4.651,0,0,0-4.638,4.638V62.35A4.651,4.651,0,0,0,31.2,66.988h9.276a4.651,4.651,0,0,0,4.638-4.638V53.075a4.651,4.651,0,0,0-4.638-4.638M31.2,53.075h9.276V62.35H31.2Z" transform="translate(12.859 23.448)" fill="#026bbb" stroke="#fff" stroke-width="1"/>
    <path id="Path_132" data-name="Path 132" d="M21.726,48.437H12.451a4.651,4.651,0,0,0-4.638,4.638V62.35a4.651,4.651,0,0,0,4.638,4.638h9.276a4.651,4.651,0,0,0,4.638-4.638V53.075a4.651,4.651,0,0,0-4.638-4.638m-9.276,4.638h9.276V62.35H12.451Z" transform="translate(3.782 23.448)" fill="#026bbb" stroke="#fff" stroke-width="1"/>
    <path id="Path_133" data-name="Path 133" d="M40.476,65.624H31.2a4.651,4.651,0,0,0-4.638,4.638v9.276A4.651,4.651,0,0,0,31.2,84.175h9.276a4.651,4.651,0,0,0,4.638-4.638V70.262a4.651,4.651,0,0,0-4.638-4.638M31.2,70.262h9.276v9.276H31.2Z" transform="translate(12.859 31.768)" fill="#026bbb" stroke="#fff" stroke-width="1"/>
    <path id="Path_134" data-name="Path 134" d="M21.726,65.624H12.451a4.651,4.651,0,0,0-4.638,4.638v9.276a4.651,4.651,0,0,0,4.638,4.638h9.276a4.651,4.651,0,0,0,4.638-4.638V70.262a4.651,4.651,0,0,0-4.638-4.638m-9.276,4.638h9.276v9.276H12.451Z" transform="translate(3.782 31.768)" fill="#026bbb" stroke="#fff" stroke-width="1"/>
    <path id="Path_135" data-name="Path 135" d="M125.222,75.434V23.189a11.6,11.6,0,0,0-11.594-11.6h-6.957V9.276a9.276,9.276,0,1,0-18.551,0v2.318H71.887V9.276a9.276,9.276,0,0,0-18.551,0v2.318H37.1V9.276a9.276,9.276,0,0,0-18.551,0v2.318H11.594A11.6,11.6,0,0,0,0,23.189v92.756a11.6,11.6,0,0,0,11.594,11.6H86.658a32.426,32.426,0,1,0,38.561-52.107ZM92.757,9.276a4.638,4.638,0,1,1,9.276,0v2.318H92.757Zm-34.784,0a4.638,4.638,0,0,1,9.276,0v2.318H57.973Zm-34.784,0a4.638,4.638,0,1,1,9.276,0v2.318H23.189ZM4.638,23.189a6.977,6.977,0,0,1,6.956-6.957H32.463v2.32a4.651,4.651,0,0,1-4.638,4.638,2.319,2.319,0,0,0,0,4.638A9.272,9.272,0,0,0,37.1,18.551v-2.32H67.247v2.32a4.652,4.652,0,0,1-4.638,4.638,2.319,2.319,0,1,0,0,4.638,9.273,9.273,0,0,0,9.276-9.276v-2.32H102.03v2.32a4.652,4.652,0,0,1-4.638,4.638,2.319,2.319,0,1,0,0,4.638,9.273,9.273,0,0,0,9.276-9.276v-2.32h6.956a6.979,6.979,0,0,1,6.957,6.957V34.783H4.636Zm0,92.756V39.422H120.583V72.744A32.239,32.239,0,0,0,85.8,77.2v-.672a4.651,4.651,0,0,0-4.638-4.638H71.887a4.651,4.651,0,0,0-4.638,4.638V85.8a4.651,4.651,0,0,0,4.638,4.638h4.5a32.207,32.207,0,0,0,5.45,32.463H11.6a6.976,6.976,0,0,1-6.956-6.956ZM81.161,82.02a34.728,34.728,0,0,0-2.573,3.78h-6.7V76.524h9.276Zm25.509,47.838A27.827,27.827,0,1,1,134.5,102.031a27.848,27.848,0,0,1-27.827,27.827" fill="#026bbb" stroke="#fff" stroke-width="1"/>
    <path id="Path_136" data-name="Path 136" d="M90.1,60.534l-18.064,20.2-8.7-8.7a2.312,2.312,0,1,0-3.269,3.269L70.5,85.74a2.293,2.293,0,0,0,1.646.672h.07a2.306,2.306,0,0,0,1.67-.766L93.6,63.617a2.316,2.316,0,1,0-3.455-3.084Z" transform="translate(28.749 28.929)" fill="#026bbb" stroke="#fff" stroke-width="1"/>
  </g>
</svg>
