<svg width="114" height="168" viewBox="0 0 114 168" fill="none" xmlns="http://www.w3.org/2000/svg">
<g clip-path="url(#clip0_3_2)">
<mask id="mask0_3_2" style="mask-type:luminance" maskUnits="userSpaceOnUse" x="-52" y="-25" width="219" height="219">
<path d="M166.217 -25H-52V193.217H166.217V-25Z" fill="white"/>
</mask>
<g mask="url(#mask0_3_2)">
<path fill-rule="evenodd" clip-rule="evenodd" d="M110.429 145.398H3.7892C3.22403 145.398 2.682 145.173 2.28236 144.774C1.88272 144.374 1.6582 143.832 1.6582 143.267V24.019C1.6582 23.4536 1.88282 22.9113 2.28265 22.5114C2.68248 22.1116 3.22476 21.887 3.7902 21.887H110.43C110.995 21.887 111.537 22.1115 111.937 22.5112C112.337 22.9108 112.561 23.4528 112.561 24.018V143.312C112.552 143.87 112.323 144.402 111.924 144.793C111.524 145.183 110.988 145.401 110.429 145.398ZM5.8752 141.181H108.298V26.105H5.8752V141.181Z" fill="#FF2D16" stroke="white"/>
<path fill-rule="evenodd" clip-rule="evenodd" d="M26.8303 166.353H12.8903C12.3251 166.353 11.7831 166.128 11.3834 165.729C10.9838 165.329 10.7593 164.787 10.7593 164.222V143.312C10.7593 142.747 10.9838 142.205 11.3834 141.805C11.7831 141.406 12.3251 141.181 12.8903 141.181H26.8303C27.3955 141.181 27.9375 141.406 28.3371 141.805C28.7368 142.205 28.9613 142.747 28.9613 143.312V164.223C28.9613 164.503 28.9062 164.78 28.799 165.038C28.6919 165.297 28.535 165.532 28.3371 165.729C28.1392 165.927 27.9042 166.084 27.6457 166.191C27.3872 166.298 27.1101 166.353 26.8303 166.353ZM15.0203 162.132H24.7433V145.443H15.0203V162.132Z" fill="#FF2D16" stroke="white"/>
<path fill-rule="evenodd" clip-rule="evenodd" d="M63.2351 166.353H49.2951C48.7298 166.353 48.1877 166.129 47.7879 165.729C47.3881 165.329 47.1634 164.787 47.1631 164.222V143.312C47.1634 142.747 47.3881 142.205 47.7879 141.805C48.1877 141.405 48.7298 141.181 49.2951 141.181H63.2351C63.515 141.181 63.7922 141.236 64.0509 141.343C64.3096 141.45 64.5446 141.607 64.7426 141.805C64.9406 142.003 65.0976 142.238 65.2048 142.496C65.3119 142.755 65.3671 143.032 65.3671 143.312V164.223C65.3519 164.783 65.1224 165.317 64.7257 165.713C64.3291 166.109 63.7956 166.338 63.2351 166.353ZM51.3811 162.132H61.1041V145.443H51.3811V162.132Z" fill="#FF2D16" stroke="white"/>
<path fill-rule="evenodd" clip-rule="evenodd" d="M98.6193 166.353H84.6793C84.1142 166.353 83.5721 166.128 83.1725 165.729C82.7729 165.329 82.5483 164.787 82.5483 164.222V143.312C82.5483 142.747 82.7729 142.205 83.1725 141.805C83.5721 141.406 84.1142 141.181 84.6793 141.181H98.6193C99.1845 141.181 99.7265 141.406 100.126 141.805C100.526 142.205 100.75 142.747 100.75 143.312V164.223C100.75 164.788 100.525 165.33 100.126 165.729C99.7262 166.129 99.1843 166.353 98.6193 166.353ZM86.8093 162.132H96.5353V145.443H86.8123L86.8093 162.132Z" fill="#FF2D16" stroke="white"/>
<path fill-rule="evenodd" clip-rule="evenodd" d="M55.7323 67.884C53.7734 67.8909 51.8306 67.5292 50.0053 66.818C47.0125 65.6475 44.4751 63.5462 42.7673 60.824C41.2608 58.4699 40.3332 55.7925 40.0603 53.011C39.7715 50.6241 40.0606 48.2028 40.9033 45.951C41.3615 44.671 42.0207 43.4723 42.8563 42.4C43.0995 42.0631 43.4324 41.8013 43.8171 41.6445C44.2019 41.4877 44.6229 41.4421 45.0323 41.513C45.5059 41.6147 45.9458 41.8351 46.3109 42.1535C46.6759 42.4718 46.9541 42.8777 47.1193 43.333C47.0704 42.5151 47.1299 41.6943 47.2963 40.892C47.8136 38.4218 49.2599 36.2445 51.3363 34.81C51.8243 34.454 52.4023 34.099 52.8903 33.744C53.2903 33.433 53.2903 33.3 53.2903 33.122C53.2654 32.7329 53.2061 32.3467 53.1133 31.968V31.879C53.0524 31.4308 53.1155 30.9746 53.2957 30.5597C53.4759 30.1449 53.7662 29.7874 54.1353 29.526C54.7232 29.1706 55.3954 28.9791 56.0823 28.9713C56.7692 28.9636 57.4456 29.1399 58.0413 29.482C58.0853 29.482 58.0853 29.526 58.1303 29.526C59.539 30.3497 60.597 31.661 61.1043 33.212C61.4625 34.3293 61.554 35.515 61.3713 36.674C61.2823 37.385 61.1503 38.095 61.0163 38.806C60.9723 39.116 60.8833 39.426 60.8393 39.693C60.6457 40.4282 60.6923 41.2061 60.9723 41.913C61.0878 42.1545 61.2732 42.3559 61.5043 42.491V42.446C61.6802 42.1479 61.7865 41.8139 61.8153 41.469C61.8765 40.5792 61.8319 39.6853 61.6823 38.806V38.717C61.6378 38.1984 61.785 37.6815 62.0961 37.2642C62.4072 36.847 62.8606 36.5583 63.3703 36.453C64.4353 36.23 65.2783 36.541 67.3703 39.116C68.5291 40.4651 69.4587 41.995 70.1223 43.645C70.8432 45.594 71.3349 47.6203 71.5873 49.683C71.9264 52.6878 71.4349 55.7281 70.1663 58.473C69.0427 61.0946 67.2328 63.3646 64.9273 65.044C62.9571 66.4875 60.6509 67.4041 58.2273 67.707C57.3993 67.8092 56.5665 67.8682 55.7323 67.884ZM44.5883 48.302C44.2343 49.6932 44.129 51.1361 44.2773 52.564C44.4862 54.6856 45.2019 56.7259 46.3643 58.513C47.5783 60.4903 49.4039 62.0178 51.5643 62.864C53.5003 63.6068 55.5955 63.8363 57.6463 63.53C59.3687 63.3182 61.006 62.6605 62.3963 61.622C64.0931 60.3643 65.4258 58.679 66.2583 56.738C67.2202 54.6741 67.6038 52.3878 67.3683 50.123C67.1256 48.3647 66.6942 46.6378 66.0813 44.972C65.9339 44.5666 65.7407 44.1795 65.5053 43.818C65.2975 44.3721 64.9804 44.8787 64.5729 45.3078C64.1653 45.7369 63.6757 46.0797 63.133 46.3158C62.5904 46.5519 62.0058 46.6766 61.414 46.6822C60.8223 46.6879 60.2354 46.5746 59.6883 46.349C58.5178 45.8106 57.5845 44.8627 57.0643 43.684C56.4279 42.2015 56.2577 40.5605 56.5763 38.979C56.6203 38.668 56.7093 38.357 56.7533 38.046C56.8863 37.38 57.0203 36.715 57.1083 36.046V36.004C57.1977 35.6394 57.1977 35.2586 57.1083 34.894C56.7212 35.8397 56.0554 36.645 55.1993 37.203L55.1553 37.247C54.6233 37.602 54.1333 37.913 53.6903 38.269C52.4826 39.11 51.6411 40.38 51.3373 41.82C51.1936 42.6903 51.2239 43.5805 51.4263 44.439C51.588 45.1535 51.6771 45.8826 51.6923 46.615C51.6999 47.329 51.5391 48.0348 51.2229 48.6751C50.9067 49.3153 50.444 49.872 49.8723 50.3C49.3674 50.7127 48.7393 50.9453 48.0874 50.9613C47.4355 50.9772 46.7968 50.7755 46.2723 50.388C45.8978 50.1174 45.5552 49.8051 45.2513 49.457C45.2073 49.412 45.2073 49.412 45.1623 49.368C44.9357 49.0328 44.7434 48.6757 44.5883 48.302Z" fill="#FF2D16" stroke="white"/>
<path fill-rule="evenodd" clip-rule="evenodd" d="M101.727 105.175H12.4474C12.1675 105.175 11.8903 105.12 11.6316 105.013C11.373 104.906 11.1379 104.749 10.9399 104.551C10.742 104.353 10.5849 104.118 10.4777 103.86C10.3706 103.601 10.3154 103.324 10.3154 103.044V71.701C10.3157 71.1357 10.5404 70.5937 10.9402 70.1941C11.34 69.7945 11.8822 69.57 12.4474 69.57H101.727C102.293 69.57 102.835 69.7945 103.234 70.1942C103.634 70.5938 103.858 71.1358 103.858 71.701V103.044C103.859 103.324 103.804 103.601 103.696 103.86C103.589 104.118 103.432 104.353 103.235 104.551C103.037 104.749 102.802 104.906 102.543 105.013C102.284 105.12 102.007 105.175 101.727 105.175ZM14.5774 100.958H99.6404V73.831H14.5774V100.958Z" fill="#FF2D16" stroke="white"/>
<path fill-rule="evenodd" clip-rule="evenodd" d="M22.9684 137.007C20.4749 137.007 18.0373 136.268 15.964 134.882C13.8907 133.497 12.2747 131.528 11.3204 129.225C10.366 126.921 10.1162 124.386 10.6024 121.94C11.0886 119.495 12.2891 117.248 14.0521 115.485C15.8151 113.721 18.0613 112.52 20.5068 112.034C22.9523 111.547 25.4873 111.796 27.7912 112.75C30.095 113.704 32.0643 115.319 33.4501 117.392C34.8358 119.465 35.5758 121.902 35.5764 124.396C35.5716 127.739 34.2418 130.943 31.8785 133.307C29.5151 135.671 26.311 137.001 22.9684 137.007ZM22.9684 116.007C21.3087 116.007 19.6862 116.499 18.3062 117.421C16.9261 118.343 15.8505 119.653 15.2153 121.186C14.5801 122.72 14.4138 124.407 14.7375 126.035C15.0613 127.663 15.8605 129.158 17.034 130.331C18.2076 131.505 19.7028 132.304 21.3306 132.628C22.9584 132.952 24.6456 132.785 26.1789 132.15C27.7122 131.515 29.0227 130.439 29.9446 129.059C30.8666 127.679 31.3586 126.057 31.3584 124.397C31.3523 122.174 30.4664 120.043 28.8943 118.471C27.3222 116.899 25.1917 116.013 22.9684 116.007Z" fill="#FF2D16" stroke="white"/>
<path fill-rule="evenodd" clip-rule="evenodd" d="M91.2052 138.294C88.7116 138.294 86.2741 137.554 84.2009 136.169C82.1277 134.783 80.5118 132.814 79.5577 130.51C78.6035 128.207 78.3539 125.672 78.8405 123.226C79.327 120.78 80.5277 118.534 82.2909 116.771C84.0541 115.008 86.3006 113.807 88.7462 113.32C91.1918 112.834 93.7268 113.083 96.0306 114.038C98.3343 114.992 100.303 116.608 101.689 118.681C103.074 120.754 103.814 123.191 103.814 125.685C103.809 129.027 102.479 132.232 100.115 134.595C97.7517 136.959 94.5476 138.289 91.2052 138.294ZM91.2052 117.294C89.5455 117.294 87.923 117.786 86.543 118.708C85.1629 119.63 84.0873 120.94 83.4521 122.473C82.8169 124.007 82.6506 125.694 82.9743 127.322C83.2981 128.95 84.0973 130.445 85.2708 131.618C86.4444 132.792 87.9396 133.591 89.5674 133.915C91.1952 134.239 92.8824 134.072 94.4157 133.437C95.949 132.802 97.2595 131.726 98.1814 130.346C99.1034 128.966 99.5953 127.344 99.5952 125.684C99.5891 123.461 98.7032 121.33 97.1311 119.758C95.559 118.186 93.4285 117.3 91.2052 117.294Z" fill="#FF2D16" stroke="white"/>
<path fill-rule="evenodd" clip-rule="evenodd" d="M31.2264 98.116C30.8435 98.1204 30.4669 98.0191 30.1378 97.8232C29.8088 97.6274 29.5401 97.3446 29.3614 97.006C29.1084 96.5105 29.0603 95.9354 29.2273 95.4047C29.3943 94.8741 29.7632 94.4303 30.2544 94.169L31.9864 93.282C32.2342 93.1644 32.4514 92.991 32.6209 92.7753C32.7904 92.5596 32.9077 92.3076 32.9634 92.039C32.9933 91.8217 32.9728 91.6004 32.9034 91.3923C32.834 91.1842 32.7177 90.9949 32.5634 90.839L30.4714 88.569L30.3384 88.436L29.0074 86.706C27.9653 85.3884 27.4836 83.7136 27.6664 82.0437C27.8492 80.3738 28.6819 78.8429 29.9844 77.782L31.3144 76.629C31.5245 76.4482 31.7682 76.3105 32.0315 76.2238C32.2948 76.1372 32.5726 76.1032 32.8491 76.1239C33.1255 76.1446 33.3952 76.2196 33.6427 76.3445C33.8901 76.4694 34.1106 76.6419 34.2914 76.852C34.4722 77.0621 34.6099 77.3058 34.6966 77.5691C34.7832 77.8324 34.8172 78.1102 34.7965 78.3867C34.7757 78.6631 34.7008 78.9328 34.5759 79.1803C34.451 79.4277 34.2785 79.6482 34.0684 79.829L32.7354 80.983C32.4953 81.1587 32.2936 81.3814 32.1425 81.6377C31.9915 81.8939 31.8943 82.1783 31.8568 82.4734C31.8194 82.7685 31.8425 83.0682 31.9248 83.354C32.0071 83.6399 32.1468 83.906 32.3354 84.136L33.5784 85.778L35.6214 87.953C36.2226 88.5735 36.6686 89.3273 36.9232 90.1529C37.1778 90.9786 37.2337 91.8527 37.0864 92.704C36.9128 93.6112 36.5342 94.4667 35.9796 95.2053C35.4251 95.944 34.7091 96.5462 33.8864 96.966L32.1544 97.853C31.8783 98.0314 31.5551 98.123 31.2264 98.116Z" fill="#FF2D16" stroke="white"/>
<path fill-rule="evenodd" clip-rule="evenodd" d="M48.6304 98.381C48.2474 98.386 47.8705 98.285 47.5413 98.0891C47.2122 97.8932 46.9436 97.6101 46.7654 97.271C46.5097 96.7757 46.4595 96.1996 46.6257 95.6676C46.792 95.1356 47.1612 94.6906 47.6534 94.429L49.3854 93.542C49.6329 93.4178 49.8515 93.243 50.0271 93.0288C50.2026 92.8147 50.3312 92.566 50.4044 92.299C50.4345 92.0817 50.414 91.8604 50.3446 91.6522C50.2753 91.4441 50.1588 91.2548 50.0044 91.099L47.9174 88.835L47.7844 88.702L46.4514 86.972C45.4109 85.6537 44.9303 83.9792 45.1133 82.3098C45.2963 80.6403 46.1281 79.1097 47.4294 78.048L48.7604 76.894C49.1848 76.5288 49.7368 76.3471 50.2951 76.3889C50.8534 76.4307 51.3722 76.6926 51.7374 77.117C52.1026 77.5413 52.2843 78.0934 52.2425 78.6517C52.2006 79.21 51.9388 79.7288 51.5144 80.094L50.1814 81.248C49.9414 81.4236 49.7397 81.6462 49.5886 81.9024C49.4376 82.1586 49.3404 82.4429 49.3029 82.7379C49.2655 83.0329 49.2886 83.3325 49.3709 83.6182C49.4531 83.904 49.5928 84.17 49.7814 84.4L51.0244 86.042L53.0674 88.217C53.6695 88.8364 54.1167 89.5894 54.3723 90.4146C54.628 91.2397 54.6849 92.1136 54.5384 92.965C54.3652 93.8723 53.9868 94.728 53.4322 95.4667C52.8776 96.2054 52.1614 96.8075 51.3384 97.227L49.6064 98.114C49.3203 98.31 48.9765 98.4041 48.6304 98.381Z" fill="#FF2D16" stroke="white"/>
<path fill-rule="evenodd" clip-rule="evenodd" d="M65.9881 98.692C65.6053 98.6964 65.2286 98.5951 64.8996 98.3992C64.5705 98.2034 64.3019 97.9206 64.1231 97.582C63.8682 97.0866 63.8185 96.5108 63.9846 95.979C64.1508 95.4472 64.5195 95.0021 65.0111 94.74L66.7431 93.853C66.991 93.7354 67.2082 93.5619 67.3777 93.3463C67.5472 93.1306 67.6644 92.8786 67.7201 92.61C67.75 92.3927 67.7295 92.1714 67.6601 91.9633C67.5908 91.7552 67.4744 91.5659 67.3201 91.41L65.2331 89.147L65.1001 89.014L63.7681 87.287C62.726 85.9694 62.2443 84.2946 62.4272 82.6247C62.61 80.9548 63.4426 79.4239 64.7451 78.363L66.0761 77.209C66.5005 76.8438 67.0525 76.6621 67.6108 76.7039C68.1691 76.7458 68.6879 77.0076 69.0531 77.432C69.4183 77.8563 69.6 78.4084 69.5582 78.9667C69.5164 79.525 69.2545 80.0438 68.8301 80.409L67.4941 81.556C67.2541 81.7316 67.0523 81.9544 66.9013 82.2107C66.7502 82.4669 66.653 82.7513 66.6156 83.0464C66.5781 83.3415 66.6013 83.6411 66.6835 83.927C66.7658 84.2129 66.9055 84.4789 67.0941 84.709L68.3371 86.351L70.3801 88.526C70.9813 89.1465 71.4274 89.9003 71.682 90.7259C71.9366 91.5516 71.9925 92.4257 71.8451 93.277C71.6715 94.1842 71.2929 95.0397 70.7384 95.7783C70.1838 96.5169 69.4678 97.1191 68.6451 97.539L66.9131 98.426C66.6382 98.6049 66.3161 98.6975 65.9881 98.692Z" fill="#FF2D16" stroke="white"/>
<path fill-rule="evenodd" clip-rule="evenodd" d="M83.3909 99.003C83.0081 99.0074 82.6314 98.9061 82.3024 98.7102C81.9733 98.5144 81.7047 98.2316 81.526 97.893C81.271 97.3976 81.2213 96.8218 81.3874 96.29C81.5536 95.7582 81.9223 95.3131 82.414 95.051L84.146 94.164C84.3938 94.0464 84.611 93.8729 84.7805 93.6573C84.95 93.4416 85.0672 93.1896 85.123 92.921C85.1529 92.7037 85.1324 92.4824 85.0631 92.2743C84.9937 92.0662 84.8773 91.8768 84.723 91.721L82.636 89.457L82.5029 89.324L81.1719 87.594C80.1298 86.2764 79.6481 84.6016 79.831 82.9317C80.0138 81.2618 80.8465 79.7309 82.149 78.67L83.48 77.516C83.6901 77.3352 83.9337 77.1975 84.1971 77.1108C84.4604 77.0242 84.7382 76.9902 85.0146 77.0109C85.2911 77.0316 85.5607 77.1066 85.8082 77.2315C86.0557 77.3564 86.2761 77.5289 86.457 77.739C86.6378 77.9491 86.7755 78.1928 86.8621 78.4561C86.9488 78.7194 86.9827 78.9972 86.962 79.2737C86.9413 79.5501 86.8663 79.8198 86.7414 80.0672C86.6165 80.3147 86.4441 80.5352 86.234 80.716L84.901 81.87C84.661 82.0456 84.4594 82.2684 84.3085 82.5245C84.1575 82.7807 84.0603 83.065 84.0229 83.3599C83.9855 83.6549 84.0086 83.9544 84.0907 84.2402C84.1729 84.526 84.3125 84.792 84.501 85.022L85.744 86.664L87.786 88.839C88.3872 89.4595 88.8333 90.2133 89.0879 91.0389C89.3425 91.8645 89.3984 92.7387 89.2509 93.59C89.0773 94.4972 88.6988 95.3527 88.1442 96.0913C87.5896 96.8299 86.8737 97.4321 86.051 97.852L84.319 98.739C84.0407 98.9128 83.719 99.0043 83.3909 99.003Z" fill="#FF2D16" stroke="white"/>
<path fill-rule="evenodd" clip-rule="evenodd" d="M102.126 26.105H10.7141C10.3322 26.1042 9.95762 26.0008 9.6295 25.8055C9.30138 25.6102 9.03182 25.3303 8.84906 24.995C8.66628 24.666 8.57787 24.293 8.59358 23.917C8.60928 23.541 8.72849 23.1766 8.93806 22.864L21.6381 2.84199C21.8276 2.5425 22.0898 2.29585 22.4004 2.12502C22.7109 1.95419 23.0596 1.86474 23.4141 1.86499H89.5211C89.8755 1.86474 90.2242 1.95419 90.5347 2.12502C90.8453 2.29585 91.1075 2.5425 91.2971 2.84199L103.906 22.864C104.109 23.1807 104.22 23.5473 104.228 23.9233C104.236 24.2993 104.14 24.6702 103.95 24.995C103.774 25.3261 103.512 25.6038 103.192 25.7991C102.872 25.9943 102.505 26.1 102.13 26.105M14.5321 21.887H98.3081L88.3631 6.08199H24.5631L14.5321 21.887Z" fill="#FF2D16"/>
<path d="M102.126 26.105H10.7141C10.3322 26.1042 9.95762 26.0008 9.6295 25.8055C9.30138 25.6102 9.03182 25.3303 8.84906 24.995C8.66628 24.666 8.57787 24.293 8.59358 23.917C8.60928 23.541 8.72849 23.1766 8.93806 22.864L21.6381 2.84199C21.8276 2.5425 22.0898 2.29585 22.4004 2.12502C22.7109 1.95419 23.0596 1.86474 23.4141 1.86499H89.5211C89.8755 1.86474 90.2242 1.95419 90.5347 2.12502C90.8453 2.29585 91.1075 2.5425 91.2971 2.84199L103.906 22.864C104.109 23.1807 104.22 23.5473 104.228 23.9233C104.236 24.2993 104.14 24.6702 103.95 24.995C103.774 25.3261 103.512 25.6038 103.192 25.7991C102.872 25.9943 102.505 26.1 102.13 26.105M14.5321 21.887H98.3081L88.3631 6.08199H24.5631L14.5321 21.887Z" stroke="white"/>
</g>
</g>
<defs>
<clipPath id="clip0_3_2">
<rect width="114" height="168" fill="white"/>
</clipPath>
</defs>
</svg>
