<svg xmlns="http://www.w3.org/2000/svg" xmlns:xlink="http://www.w3.org/1999/xlink" width="128" height="165" viewBox="0 0 128 165">
  <defs>
    <clipPath id="clip-path">
      <rect id="Rectangle_66" data-name="Rectangle 66" width="128" height="165" transform="translate(0 -0.429)" fill="#ff2d16" stroke="#fff" stroke-width="4"/>
    </clipPath>
  </defs>
  <g id="Group_157" data-name="Group 157" transform="translate(0 0.429)" clip-path="url(#clip-path)">
    <path id="Path_53" data-name="Path 53" d="M117.029,14.629H51.2V3.657a3.657,3.657,0,1,0-7.314,0V14.629H25.6V3.657a3.657,3.657,0,1,0-7.314,0V14.629H10.971A11,11,0,0,0,0,25.6v128a11,11,0,0,0,10.971,10.971H117.029A11,11,0,0,0,128,153.6V25.6a11,11,0,0,0-10.971-10.971M120.686,153.6a3.668,3.668,0,0,1-3.657,3.657H10.971A3.668,3.668,0,0,1,7.314,153.6V25.6a3.668,3.668,0,0,1,3.657-3.657H117.029a3.668,3.668,0,0,1,3.657,3.657Z" fill="#ff2d16" stroke="#fff" stroke-width="4"/>
    <path id="Path_54" data-name="Path 54" d="M90.457,30.629H86.8V26.971A11,11,0,0,0,75.829,16H28.286A11,11,0,0,0,17.314,26.971V41.6H13.657a3.657,3.657,0,1,0,0,7.314h3.657V63.543A11,11,0,0,0,28.286,74.514H75.829A11,11,0,0,0,86.8,63.543V59.886h3.657a11,11,0,0,0,10.971-10.971V41.6A11,11,0,0,0,90.457,30.629m-32.914,30.9a12.812,12.812,0,0,1-1.829,1.463V58.057a3.657,3.657,0,0,0-7.314,0v4.937a4.644,4.644,0,0,1-1.829-1.463,7.869,7.869,0,0,1-.549-10.606l6.034-7.5,6.034,7.5a7.684,7.684,0,0,1-.549,10.606m21.943,2.011A3.668,3.668,0,0,1,75.829,67.2H62.3l.549-.549a15.153,15.153,0,0,0,1.1-20.3L54.983,35.2a3.871,3.871,0,0,0-5.669,0l-8.96,11.154a15.153,15.153,0,0,0,1.1,20.3L42,67.2H28.286a3.668,3.668,0,0,1-3.657-3.657V48.914h3.657a3.657,3.657,0,0,0,0-7.314H24.629V26.971a3.668,3.668,0,0,1,3.657-3.657H75.829a3.668,3.668,0,0,1,3.657,3.657ZM94.114,48.914a3.668,3.668,0,0,1-3.657,3.657H86.8V37.943h3.657A3.668,3.668,0,0,1,94.114,41.6Z" transform="translate(8.286 13.257)" fill="#ff2d16" stroke="#fff" stroke-width="4"/>
    <path id="Path_55" data-name="Path 55" d="M90.457,59.314H86.251A10.952,10.952,0,0,0,75.829,52H28.286A11,11,0,0,0,17.314,62.971v3.657H13.657a3.657,3.657,0,1,0,0,7.314h3.657V77.6A11,11,0,0,0,28.286,88.571H75.829a11.317,11.317,0,0,0,10.423-7.314h4.206a10.971,10.971,0,1,0,0-21.943M79.486,77.6a3.668,3.668,0,0,1-3.657,3.657H28.286A3.668,3.668,0,0,1,24.629,77.6V73.943h3.657a3.657,3.657,0,1,0,0-7.314H24.629V62.971a3.668,3.668,0,0,1,3.657-3.657H75.829a3.668,3.668,0,0,1,3.657,3.657Zm10.971-3.657H86.8V66.629h3.657a3.657,3.657,0,1,1,0,7.314" transform="translate(8.286 43.086)" fill="#ff2d16" stroke="#fff" stroke-width="4"/>
    <path id="Path_56" data-name="Path 56" d="M39.6,78H17.657a3.657,3.657,0,1,0,0,7.314H39.6A3.657,3.657,0,1,0,39.6,78" transform="translate(11.6 64.629)" fill="#ff2d16" stroke="#fff" stroke-width="4"/>
    <path id="Path_57" data-name="Path 57" d="M61.6,78H39.657a3.657,3.657,0,1,0,0,7.314H61.6A3.657,3.657,0,0,0,61.6,78" transform="translate(29.829 64.629)" fill="#ff2d16" stroke="#fff" stroke-width="4"/>
  </g>
</svg>
