<svg id="Group_170" data-name="Group 170" xmlns="http://www.w3.org/2000/svg" xmlns:xlink="http://www.w3.org/1999/xlink" width="172.986" height="184.071" viewBox="0 0 172.986 184.071">
  <defs>
    <clipPath id="clip-path">
      <rect id="Rectangle_69" data-name="Rectangle 69" width="172.986" height="184.071" fill="#ff2d16" stroke="#fff" stroke-width="2"/>
    </clipPath>
  </defs>
  <g id="Group_163" data-name="Group 163" transform="translate(0 0)" clip-path="url(#clip-path)">
    <path id="Path_72" data-name="Path 72" d="M47.078,26.812a2.583,2.583,0,0,0,2.578-2.578V2.578A2.583,2.583,0,0,0,47.078,0,2.436,2.436,0,0,0,44.5,2.578v21.4a2.824,2.824,0,0,0,2.578,2.836" transform="translate(70.222 0)" fill="#ff2d16" stroke="#fff" stroke-width="2"/>
    <path id="Path_73" data-name="Path 73" d="M46.484,25.893a2.492,2.492,0,0,0,3.609,0,2.492,2.492,0,0,0,0-3.609L34.883,7.073a2.552,2.552,0,0,0-3.609,3.609Z" transform="translate(48.13 9.942)" fill="#ff2d16" stroke="#fff" stroke-width="2"/>
    <path id="Path_74" data-name="Path 74" d="M27.32,25.256H48.976a2.578,2.578,0,1,0,0-5.156h-21.4A2.583,2.583,0,0,0,25,22.678a2.38,2.38,0,0,0,2.32,2.578" transform="translate(39.451 31.718)" fill="#ff2d16" stroke="#fff" stroke-width="2"/>
    <path id="Path_75" data-name="Path 75" d="M58.083,28.873a2.552,2.552,0,0,0-3.609,3.609l15.21,15.21a2.492,2.492,0,0,0,3.609,0,2.492,2.492,0,0,0,0-3.609Z" transform="translate(84.74 44.343)" fill="#ff2d16" stroke="#fff" stroke-width="2"/>
    <path id="Path_76" data-name="Path 76" d="M80.776,20.2h-21.4a2.578,2.578,0,0,0,0,5.156h21.4a2.583,2.583,0,0,0,2.578-2.578A2.436,2.436,0,0,0,80.776,20.2" transform="translate(89.632 31.876)" fill="#ff2d16" stroke="#fff" stroke-width="2"/>
    <path id="Path_77" data-name="Path 77" d="M55.578,25.966a2.785,2.785,0,0,0,1.8-.773l15.21-15.21a2.492,2.492,0,0,0,0-3.609,2.492,2.492,0,0,0-3.609,0l-15.21,15.21a2.492,2.492,0,0,0,0,3.609,2.34,2.34,0,0,0,1.8.773" transform="translate(83.636 8.837)" fill="#ff2d16" stroke="#fff" stroke-width="2"/>
    <path id="Path_78" data-name="Path 78" d="M38.335,45.014a2.539,2.539,0,1,0,4.64-2.062,21.114,21.114,0,0,1-1.8-7.734,18.562,18.562,0,1,1,37.124,0,17.927,17.927,0,0,1-10.312,16.5,2.275,2.275,0,0,0-1.031,3.351,2.707,2.707,0,0,0,2.32,1.289A1.55,1.55,0,0,0,70.3,56.1,23.06,23.06,0,0,0,83.45,34.96a23.46,23.46,0,1,0-46.92,0,21.852,21.852,0,0,0,1.8,10.054" transform="translate(57.568 18.147)" fill="#ff2d16" stroke="#fff" stroke-width="2"/>
    <path id="Path_79" data-name="Path 79" d="M152.362,102.32c0-.258,0-.516-.258-.516,0-.258-.258-.258-.258-.516s-.258-.258-.258-.516L104.41,53.079a.252.252,0,0,0,.258-.258,9.649,9.649,0,0,0,5.414-5.156,13.608,13.608,0,0,0,.258-10.57c-2.32-6.187-7.992-10.312-13.664-9.539H95.645l-.516.258h-.258L7.734,54.626H7.476a10.639,10.639,0,0,0-6.7,6.961,18.421,18.421,0,0,0,0,10.57,16.362,16.362,0,0,0,6.187,8.507,10.986,10.986,0,0,0,6.445,2.32h.258a3.1,3.1,0,0,0,.516,2.062l51.3,54.912c.258.258.516.258.516.516h.258c.258,0,.516.258.773.258a1.949,1.949,0,0,0,1.031-.258l35.319-14.953,11.859-5.156L150.815,104.9c.258,0,.258-.258.516-.258s.258-.258.516-.258c.258-.258.258-.516.516-.516l.258-.258v-1.031a.252.252,0,0,1-.258-.258M138.7,104.64,92.293,57.2l6.961-2.32a.252.252,0,0,0,.258.258L145.659,101.8ZM126.839,109.8,79.919,61.329l7.218-2.32c0,.258.258.258.258.516l46.4,47.436c-.258-.258-6.961,2.836-6.961,2.836m-11.859,4.9L67.544,65.2l7.218-2.32c0,.258.258.258.258.516l46.92,48.467Zm-11.859,5.156L55.17,69.321,62.388,67a.252.252,0,0,0,.258.258l47.694,49.5Zm-11.859,5.156L42.8,73.446l7.218-2.32a.554.554,0,0,0,.516.516l47.694,50.272Zm-11.6,4.9L30.421,77.571l7.218-2.32a.9.9,0,0,0,.258.516l48.467,51.3ZM67.8,135.061,18.046,81.7l7.218-2.32c0,.258.258.516.516.773l48.725,51.818c.258,0-6.7,3.094-6.7,3.094M105.7,38.9a9.964,9.964,0,0,1,0,6.7,6.56,6.56,0,0,1-3.094,2.836h-.258l-79.4,26.3a18.14,18.14,0,0,0-.258-9.8,16.388,16.388,0,0,0-5.414-7.992l79.4-24.233c3.609-.773,7.476,2.062,9.023,6.187M5.414,70.61a11.488,11.488,0,0,1,0-7.218,5.851,5.851,0,0,1,3.351-3.609c.516,0,.773-.258,1.289-.258a6.842,6.842,0,0,1,3.609,1.289,11.261,11.261,0,0,1,4.125,5.929,11.488,11.488,0,0,1,0,7.218,5.522,5.522,0,0,1-3.094,3.609l-.516.258c-1.547.516-3.094,0-4.64-1.031A13.147,13.147,0,0,1,5.414,70.61" transform="translate(0 43.339)" fill="#ff2d16" stroke="#fff" stroke-width="2"/>
  </g>
</svg>
