<svg xmlns="http://www.w3.org/2000/svg" xmlns:xlink="http://www.w3.org/1999/xlink" width="164.596" height="120.525" viewBox="0 0 164.596 120.525">
  <defs>
    <clipPath id="clip-path">
      <rect id="Rectangle_76" data-name="Rectangle 76" width="164.596" height="120.525" fill="#ff2d16" stroke="#ff2d16" stroke-width="0.5"/>
    </clipPath>
  </defs>
  <g id="Group_229" data-name="Group 229" clip-path="url(#clip-path)">
    <path id="Path_81" data-name="Path 81" d="M159.646,0H4.95A4.955,4.955,0,0,0,0,4.95V108.082a4.956,4.956,0,0,0,4.95,4.95h13.2v6.228a1.267,1.267,0,0,0,1.266,1.266H40.8a1.267,1.267,0,0,0,1.266-1.266v-6.228h80.467v6.228a1.267,1.267,0,0,0,1.266,1.266h21.384a1.267,1.267,0,0,0,1.266-1.266v-6.228h13.2a4.956,4.956,0,0,0,4.95-4.95V4.948A4.954,4.954,0,0,0,159.646,0M4.951,2.532h154.7a2.42,2.42,0,0,1,2.417,2.417V25.785H2.536V4.948A2.416,2.416,0,0,1,4.951,2.532M39.533,117.991H20.681V113.03H39.533Zm104.383,0H125.064V113.03h18.851Zm15.73-7.494H4.95a2.42,2.42,0,0,1-2.417-2.417V28.315h159.53V108.08a2.419,2.419,0,0,1-2.416,2.417" transform="translate(0 0)" fill="#ff2d16" stroke="#ff2d16" stroke-width="0.5"/>
    <path id="Path_82" data-name="Path 82" d="M7.018,7.752h40.8a1.266,1.266,0,0,0,0-2.532H7.018a1.266,1.266,0,0,0,0,2.532" transform="translate(3.958 3.592)" fill="#ff2d16" stroke="#ff2d16" stroke-width="0.5"/>
    <path id="Path_83" data-name="Path 83" d="M37.184,7.752h40.8a1.266,1.266,0,1,0,0-2.532h-40.8a1.266,1.266,0,0,0,0,2.532" transform="translate(24.717 3.592)" fill="#ff2d16" stroke="#ff2d16" stroke-width="0.5"/>
    <path id="Path_84" data-name="Path 84" d="M67.35,7.751h40.8a1.266,1.266,0,0,0,0-2.532H67.35a1.266,1.266,0,1,0,0,2.532" transform="translate(45.475 3.591)" fill="#ff2d16" stroke="#ff2d16" stroke-width="0.5"/>
    <path id="Path_85" data-name="Path 85" d="M7.018,12.586h40.8a1.266,1.266,0,0,0,0-2.532H7.018a1.266,1.266,0,0,0,0,2.532" transform="translate(3.958 6.919)" fill="#ff2d16" stroke="#ff2d16" stroke-width="0.5"/>
    <path id="Path_86" data-name="Path 86" d="M37.184,12.586h40.8a1.266,1.266,0,1,0,0-2.532h-40.8a1.266,1.266,0,0,0,0,2.532" transform="translate(24.717 6.919)" fill="#ff2d16" stroke="#ff2d16" stroke-width="0.5"/>
    <path id="Path_87" data-name="Path 87" d="M67.35,12.585h40.8a1.266,1.266,0,0,0,0-2.532H67.35a1.266,1.266,0,1,0,0,2.532" transform="translate(45.475 6.918)" fill="#ff2d16" stroke="#ff2d16" stroke-width="0.5"/>
    <path id="Path_88" data-name="Path 88" d="M90.035,50.632a9.285,9.285,0,1,0,9.285,9.285,9.3,9.3,0,0,0-9.285-9.285m0,16.037a6.748,6.748,0,0,1-1.266-13.377v6.624a1.266,1.266,0,1,0,2.532,0V53.293a6.748,6.748,0,0,1-1.266,13.377" transform="translate(55.568 34.842)" fill="#ff2d16" stroke="#ff2d16" stroke-width="0.5"/>
    <path id="Path_89" data-name="Path 89" d="M78.133,52.549A6.049,6.049,0,1,0,84.181,58.6a6.055,6.055,0,0,0-6.049-6.049m0,9.565A3.516,3.516,0,1,1,81.649,58.6a3.522,3.522,0,0,1-3.516,3.516" transform="translate(49.604 36.161)" fill="#ff2d16" stroke="#ff2d16" stroke-width="0.5"/>
    <path id="Path_90" data-name="Path 90" d="M69.467,52.549A6.049,6.049,0,1,0,75.515,58.6a6.055,6.055,0,0,0-6.049-6.049m0,9.565A3.516,3.516,0,1,1,72.983,58.6a3.522,3.522,0,0,1-3.516,3.516" transform="translate(43.641 36.161)" fill="#ff2d16" stroke="#ff2d16" stroke-width="0.5"/>
  </g>
</svg>
