<svg xmlns="http://www.w3.org/2000/svg" xmlns:xlink="http://www.w3.org/1999/xlink" width="147.283" height="148.19" viewBox="0 0 147.283 148.19">
  <defs>
    <clipPath id="clip-path">
      <rect id="Rectangle_113" data-name="Rectangle 113" width="147.283" height="148.191" fill="#026bbb" stroke="#fff" stroke-width="2"/>
    </clipPath>
  </defs>
  <g id="Group_311" data-name="Group 311" transform="translate(0 0)">
    <g id="Group_310" data-name="Group 310" transform="translate(0 0)" clip-path="url(#clip-path)">
      <path id="Path_126" data-name="Path 126" d="M31.144,26.227a1.5,1.5,0,0,0,1.054.444H84.383a1.484,1.484,0,0,0,1.48-1.48V14.523a1.483,1.483,0,0,0-1.48-1.478H82.453a9.981,9.981,0,0,1-9.137-6.027,1.4,1.4,0,0,0-1.383-.887H44.622a1.4,1.4,0,0,0-1.383.887A9.982,9.982,0,0,1,34.1,13.045H32.171a1.482,1.482,0,0,0-1.478,1.478V25.191a1.49,1.49,0,0,0,.443,1.055ZM37.53,52.007a3.048,3.048,0,1,1,0-6.1h34.8a3.048,3.048,0,0,1,0,6.1Zm0,19.228a3.048,3.048,0,1,1,0-6.1H69.6a3.048,3.048,0,0,1,0,6.1Zm0,19.228a3.048,3.048,0,1,1,0-6.1H73.239a3.048,3.048,0,0,1,0,6.1Zm0,19.228a3.048,3.048,0,1,1,0-6.1H99.15a3.048,3.048,0,0,1,0,6.1Zm0,19.247a3.048,3.048,0,1,1,0-6.1H99.15a3.048,3.048,0,0,1,0,6.1ZM23.389,42.857a3.041,3.041,0,1,1,4.494,4.1l-7.357,8.083a3.052,3.052,0,0,1-4.507,0q-1.756-1.929-3.5-3.852a3.041,3.041,0,0,1,4.5-4.1l1.266,1.383,5.107-5.615Zm0,19.228a3.041,3.041,0,1,1,4.494,4.1l-7.357,8.083a3.052,3.052,0,0,1-4.507,0q-1.756-1.929-3.5-3.852a3.041,3.041,0,0,1,4.5-4.1L18.275,67.7l5.107-5.615Zm0,19.242a3.041,3.041,0,1,1,4.494,4.1l-7.357,8.083a3.052,3.052,0,0,1-4.507,0q-1.756-1.929-3.5-3.852a3.041,3.041,0,0,1,4.5-4.1l1.266,1.383,5.107-5.615Zm0,19.228a3.041,3.041,0,1,1,4.494,4.1l-7.357,8.083a3.052,3.052,0,0,1-4.507,0q-1.756-1.929-3.5-3.852a3.041,3.041,0,0,1,4.5-4.1l1.266,1.383,5.107-5.615Zm0,19.235a3.041,3.041,0,1,1,4.494,4.1l-7.357,8.083a3.053,3.053,0,0,1-4.507,0q-1.756-1.929-3.5-3.852a3.041,3.041,0,0,1,4.5-4.1l1.266,1.383,5.107-5.615Zm97.278-63.233a3.1,3.1,0,0,0-2.206-.919H87.084a3.144,3.144,0,0,0-3.125,3.125V78.846a3.146,3.146,0,0,0,3.125,3.126h1.646a3.366,3.366,0,0,1,.361.031,3.038,3.038,0,0,1,2.649,3.39l-.314,2.488,5.762-5.067a3,3,0,0,1,2.109-.841h19.164a3.146,3.146,0,0,0,3.125-3.126V58.764A3.091,3.091,0,0,0,120.667,56.558ZM110.479,88.08v50.3a3.7,3.7,0,0,1-3.684,3.686h-97a3.7,3.7,0,0,1-3.684-3.686L6.1,24.455a3.7,3.7,0,0,1,3.684-3.684H24.6v4.412a7.6,7.6,0,0,0,7.588,7.588H84.376a7.6,7.6,0,0,0,7.589-7.588V20.771h14.816a3.7,3.7,0,0,1,3.684,3.684v6.786h-8.032a9.95,9.95,0,0,0-9.929,9.929v8.38H87.058a9.251,9.251,0,0,0-9.234,9.234V78.866a9.249,9.249,0,0,0,7.459,9.054l-.874,6.932a3.056,3.056,0,0,0,5,2.932l11.017-9.678h10.044Zm17.2-10.192v.971a9.25,9.25,0,0,1-9.234,9.234h-1.878v50.3a9.807,9.807,0,0,1-9.794,9.794l-96.982.007A9.807,9.807,0,0,1,0,138.4V24.455a9.807,9.807,0,0,1,9.794-9.794H24.61A7.591,7.591,0,0,1,32.2,6.926c1.531,0,2.83.179,4.051-.624a3.843,3.843,0,0,0,1.434-1.71A7.534,7.534,0,0,1,44.648,0H71.96a7.537,7.537,0,0,1,6.964,4.591,3.83,3.83,0,0,0,3.558,2.321h1.929A7.583,7.583,0,0,1,92,14.648h14.816a9.807,9.807,0,0,1,9.794,9.794v6.784h20.746a9.952,9.952,0,0,1,9.929,9.93V63.478a9.954,9.954,0,0,1-8.327,9.794l1.022,8.05a3.057,3.057,0,0,1-5,2.934l-7.26-6.373Zm-9.221-28.347H98.621v-8.38a3.844,3.844,0,0,1,3.819-3.819h34.886a3.846,3.846,0,0,1,3.819,3.819V63.483a3.827,3.827,0,0,1-1.118,2.7c-1.332,1.33-2.766,1.118-4.527,1.118a3.3,3.3,0,0,0-.361.033,3.038,3.038,0,0,0-2.65,3.39l.464,3.651-5.255-4.61v-11a9.25,9.25,0,0,0-9.234-9.234ZM88.783,68.8a3.048,3.048,0,1,1,3.047,3.06,3.05,3.05,0,0,1-3.047-3.06m10.931,0a3.048,3.048,0,1,1,3.049,3.06,3.051,3.051,0,0,1-3.049-3.06m10.926,0a3.048,3.048,0,1,1,3.049,3.06,3.051,3.051,0,0,1-3.049-3.06" transform="translate(0 0)" fill="#026bbb" stroke="#fff" stroke-width="2" fill-rule="evenodd"/>
    </g>
  </g>
</svg>
