<svg xmlns="http://www.w3.org/2000/svg" xmlns:xlink="http://www.w3.org/1999/xlink" width="129.68" height="129.679" viewBox="0 0 129.68 129.679">
  <defs>
    <clipPath id="clip-path">
      <rect id="Rectangle_102" data-name="Rectangle 102" width="129.68" height="129.679" fill="#026bbb"/>
    </clipPath>
  </defs>
  <g id="Group_282" data-name="Group 282" clip-path="url(#clip-path)">
    <path id="Path_120" data-name="Path 120" d="M102.118,0a27.817,27.817,0,0,0-19.268,8.16h0a27.714,27.714,0,0,0-6.98,27.61L61.7,49.944,39.165,27.409l-1.7-11.173v.006a2.034,2.034,0,0,0-.9-1.394L16.549,1.817h.006a2.06,2.06,0,0,0-.856-.311,2.031,2.031,0,0,0-1.685.576L2.088,14.008a2.032,2.032,0,0,0-.27,2.541L14.848,36.57v-.006a2.034,2.034,0,0,0,1.394.9l11.174,1.7L49.951,61.694,35.774,75.87a27.722,27.722,0,0,0-27.616,6.98h0A27.676,27.676,0,0,0,2.134,113.1a2.029,2.029,0,0,0,3.3.646L20.957,98.222l8.752,1.743,1.743,8.752L15.924,124.245l-.006-.006a2.044,2.044,0,0,0-.554,1.824,2.022,2.022,0,0,0,1.2,1.48A27.8,27.8,0,0,0,53.8,93.89l9.069-9.069a8.284,8.284,0,0,0,2.2,3.9l34.65,34.65a16.633,16.633,0,0,0,23.482,0l.167-.167h.011a16.633,16.633,0,0,0,0-23.482l-34.65-34.65a8.284,8.284,0,0,0-3.9-2.2L93.9,53.809a27.8,27.8,0,0,0,33.649-37.24v-.006a2.031,2.031,0,0,0-3.3-.645L108.713,31.446,99.961,29.7l-1.744-8.751L113.739,5.429l.006,0a2.043,2.043,0,0,0,.555-1.824,2.015,2.015,0,0,0-1.2-1.474A27.246,27.246,0,0,0,102.114,0Zm.915,4.054a25.377,25.377,0,0,1,5.554.813L94.594,18.863a2.024,2.024,0,0,0-.548,1.824l2.217,11.141a2.033,2.033,0,0,0,1.594,1.593L109,35.638h0a2.017,2.017,0,0,0,1.83-.554l13.993-13.993A23.757,23.757,0,0,1,94.029,49.6a2.022,2.022,0,0,0-2.115.474L65.078,76.905h0l-15,15a2.026,2.026,0,0,0-.474,2.109,23.752,23.752,0,0,1-28.5,30.79L35.1,110.812a2.02,2.02,0,0,0,.55-1.83L33.429,97.841a2.029,2.029,0,0,0-1.593-1.593L20.7,94.032H20.7a2.035,2.035,0,0,0-1.83.554L4.883,108.573A23.737,23.737,0,0,1,35.659,80.08h.006a2.011,2.011,0,0,0,2.109-.474L63.119,54.26l.011,0L79.6,37.787a2.026,2.026,0,0,0,.473-2.116A23.768,23.768,0,0,1,103.01,4.084ZM15.719,6.112,33.6,17.748l1.658,10.937a2.013,2.013,0,0,0,.576,1.124l23,23-6.011,6.013-23-23-.006.006a1.976,1.976,0,0,0-1.13-.566L17.748,33.6,6.112,15.724Zm67.1,60.554a4.331,4.331,0,0,1,3.052,1.276l34.65,34.65a12.521,12.521,0,0,1,0,17.751l-.172.172v.006a12.521,12.521,0,0,1-17.751,0l-34.65-34.65a4.274,4.274,0,0,1,0-6.087L79.782,67.937a4.3,4.3,0,0,1,3.046-1.276Zm-.737,13.5a2.169,2.169,0,0,0-.42.076,2.085,2.085,0,0,0-.909.532,2.026,2.026,0,0,0,0,2.865l26.5,26.494a2.032,2.032,0,0,0,2.869,0,2.026,2.026,0,0,0,0-2.863l-26.5-26.5h-.006a1.994,1.994,0,0,0-1.534-.591Z" transform="translate(0 0)" fill="#026bbb"/>
  </g>
</svg>
