<svg xmlns="http://www.w3.org/2000/svg" xmlns:xlink="http://www.w3.org/1999/xlink" width="160.8" height="150.75" viewBox="0 0 160.8 150.75">
  <defs>
    <clipPath id="clip-path">
      <rect id="Rectangle_65" data-name="Rectangle 65" width="160.8" height="150.75" fill="#ff2d16" stroke="#fff" stroke-width="2"/>
    </clipPath>
  </defs>
  <g id="Group_155" data-name="Group 155" clip-path="url(#clip-path)">
    <path id="Path_43" data-name="Path 43" d="M49.575,34.375a40.2,40.2,0,1,0,40.2,40.2,40.246,40.246,0,0,0-40.2-40.2M78.694,54.864,56.742,67.54c-.037-.043-.087-.088-.125-.125L69.292,45.462a35.531,35.531,0,0,1,9.408,9.41Zm5.967,17.2H59.31c-.013-.063-.037-.113-.05-.175L81.219,59.211a34.863,34.863,0,0,1,3.448,12.851ZM81.214,89.938,59.255,77.264c.011-.064.037-.114.05-.177H84.657a34.95,34.95,0,0,1-3.449,12.851ZM14.495,77.087H39.847c.011.063.037.113.05.175L17.938,89.938a34.856,34.856,0,0,1-3.449-12.851Zm3.448-17.876L39.9,71.886c-.013.063-.037.113-.05.175H14.5a34.988,34.988,0,0,1,3.448-12.851ZM49.581,79.6a5.025,5.025,0,1,1,5.025-5.025A5.031,5.031,0,0,1,49.581,79.6m2.513-14.761V39.487a35.021,35.021,0,0,1,12.851,3.449L52.27,64.895c-.063-.013-.113-.039-.175-.05Zm-5.025,0c-.063.013-.114.039-.177.051L34.217,42.931A34.842,34.842,0,0,1,47.07,39.482Zm0,19.46V109.65A35,35,0,0,1,34.217,106.2L46.893,84.244c.063.013.114.037.177.05Zm5.025,0c.063-.011.113-.037.175-.05l12.676,21.959a34.873,34.873,0,0,1-12.851,3.449ZM29.872,45.449,42.546,67.4c-.043.039-.087.088-.125.127L20.469,54.853a35.584,35.584,0,0,1,9.41-9.41Zm-9.41,48.83L42.415,81.605c.037.043.088.087.125.125L29.864,103.683a35.554,35.554,0,0,1-9.408-9.41Zm48.83,9.41L56.616,81.737c.045-.037.088-.088.125-.125L78.694,94.287a35.525,35.525,0,0,1-9.408,9.408Z" transform="translate(5.7 20.9)" fill="#ff2d16" stroke="#fff" stroke-width="2"/>
    <path id="Path_44" data-name="Path 44" d="M88.238,35.937h-20.1a2.513,2.513,0,1,0,0,5.025h20.1a2.513,2.513,0,0,0,0-5.025" transform="translate(39.9 21.85)" fill="#ff2d16" stroke="#fff" stroke-width="2"/>
    <path id="Path_45" data-name="Path 45" d="M88.238,42.187h-20.1a2.513,2.513,0,1,0,0,5.025h20.1a2.513,2.513,0,0,0,0-5.025" transform="translate(39.9 25.65)" fill="#ff2d16" stroke="#fff" stroke-width="2"/>
    <path id="Path_46" data-name="Path 46" d="M88.238,48.437h-20.1a2.513,2.513,0,1,0,0,5.025h20.1a2.513,2.513,0,0,0,0-5.025" transform="translate(39.9 29.45)" fill="#ff2d16" stroke="#fff" stroke-width="2"/>
    <path id="Path_47" data-name="Path 47" d="M88.238,54.687h-20.1a2.513,2.513,0,1,0,0,5.025h20.1a2.513,2.513,0,0,0,0-5.025" transform="translate(39.9 33.25)" fill="#ff2d16" stroke="#fff" stroke-width="2"/>
    <path id="Path_48" data-name="Path 48" d="M88.238,60.937h-20.1a2.512,2.512,0,1,0,0,5.025h20.1a2.512,2.512,0,0,0,0-5.025" transform="translate(39.9 37.05)" fill="#ff2d16" stroke="#fff" stroke-width="2"/>
    <path id="Path_49" data-name="Path 49" d="M88.238,67.187h-20.1a2.513,2.513,0,1,0,0,5.025h20.1a2.513,2.513,0,0,0,0-5.025" transform="translate(39.9 40.85)" fill="#ff2d16" stroke="#fff" stroke-width="2"/>
    <path id="Path_50" data-name="Path 50" d="M88.238,73.437h-20.1a2.513,2.513,0,1,0,0,5.025h20.1a2.513,2.513,0,0,0,0-5.025" transform="translate(39.9 44.65)" fill="#ff2d16" stroke="#fff" stroke-width="2"/>
    <path id="Path_51" data-name="Path 51" d="M88.238,79.687h-20.1a2.513,2.513,0,1,0,0,5.025h20.1a2.513,2.513,0,0,0,0-5.025" transform="translate(39.9 48.45)" fill="#ff2d16" stroke="#fff" stroke-width="2"/>
    <path id="Path_52" data-name="Path 52" d="M158.288,70.35a2.511,2.511,0,0,0,2.512-2.512V57.788a2.511,2.511,0,0,0-2.512-2.513H145.724V50.25a10.064,10.064,0,0,0-10.05-10.05h-7.537V10.05a10.05,10.05,0,1,0-20.1,0V40.2H10.051A10.063,10.063,0,0,0,0,50.25V140.7a10.063,10.063,0,0,0,10.05,10.05h140.7A10.064,10.064,0,0,0,160.8,140.7V128.545a10.029,10.029,0,0,0-6.871-9.534l-8.2-2.738V70.35Zm-2.513-5.025h-10.05V60.3h10.05Zm-37.687-60.3a5.032,5.032,0,0,1,5.025,5.025v5.025h-10.05V10.05a5.031,5.031,0,0,1,5.025-5.025M113.063,20.1h10.05V40.2h-10.05ZM152.34,123.779a5.021,5.021,0,0,1,3.435,4.768V140.7a5.032,5.032,0,0,1-5.025,5.025H10.051A5.031,5.031,0,0,1,5.026,140.7V50.25a5.032,5.032,0,0,1,5.025-5.025H135.674A5.033,5.033,0,0,1,140.7,50.25v67.838a2.518,2.518,0,0,0,1.721,2.388l9.926,3.3Z" transform="translate(0.001)" fill="#ff2d16" stroke="#fff" stroke-width="2"/>
  </g>
</svg>
