<svg xmlns="http://www.w3.org/2000/svg" xmlns:xlink="http://www.w3.org/1999/xlink" width="105" height="182" viewBox="0 0 105 182">
  <defs>
    <clipPath id="clip-path">
      <rect id="Rectangle_68" data-name="Rectangle 68" width="105" height="182" transform="translate(-0.013 -0.167)" fill="#ff2d16"/>
    </clipPath>
  </defs>
  <g id="Group_161" data-name="Group 161" transform="translate(0.013 0.167)" clip-path="url(#clip-path)">
    <path id="Path_71" data-name="Path 71" d="M87.14,54.462A7.262,7.262,0,1,0,79.878,47.2a7.283,7.283,0,0,0,7.262,7.262m0-10.892A3.631,3.631,0,1,1,83.509,47.2,3.642,3.642,0,0,1,87.14,43.57m0,116.186a7.262,7.262,0,1,0-7.262-7.262,7.283,7.283,0,0,0,7.262,7.262m0-10.892a3.631,3.631,0,1,1-3.631,3.631,3.642,3.642,0,0,1,3.631-3.631M79.878,14.523V0H25.416V14.523H0V181.541H105.294V14.523ZM58.093,3.631H76.247V14.523H58.093Zm-18.154,0H54.462V14.523H39.939Zm-10.892,0h7.262V14.523H29.047Zm72.617,174.28H3.631V141.6h98.032Zm0-39.939H3.631V76.247h98.032Zm0-65.355H3.631V36.308h98.032Zm0-39.939H3.631V18.154h98.032Z" fill="#ff2d16"/>
  </g>
</svg>
