<svg xmlns="http://www.w3.org/2000/svg" xmlns:xlink="http://www.w3.org/1999/xlink" width="102.383" height="110.882" viewBox="0 0 102.383 110.882">
  <defs>
    <clipPath id="clip-path">
      <rect id="Rectangle_115" data-name="Rectangle 115" width="102.383" height="110.882" fill="#026bbb" stroke="#fff" stroke-width="1"/>
    </clipPath>
  </defs>
  <g id="Group_314" data-name="Group 314" clip-path="url(#clip-path)">
    <path id="Path_137" data-name="Path 137" d="M2.664,105.444H24.645A2.644,2.644,0,0,0,27.3,102.8v-2.773h2.259a11.713,11.713,0,0,1,5.757,1.511l7,3.938a37.463,37.463,0,0,0,13.867,4.658,101.716,101.716,0,0,0,12.323.747,106.1,106.1,0,0,0,20.193-1.955h.3a11.247,11.247,0,0,0,7.394-5.936c1.247-2.87,1.068-6.381-.569-10.693V92.3a11.336,11.336,0,0,0,5.043-6.424c.915-3.2.238-6.933-2.009-11.093a9.838,9.838,0,0,0,3.368-5.866c.526-3.261-.638-6.81-3.564-10.828,3.094-4.674,5.813-10.888,1.387-16.375a12.461,12.461,0,0,0-9.8-4.382H74.051C78.85,25.047,82.468,9.6,70.957,1.794V1.789A10.243,10.243,0,0,0,61.651.624,10.722,10.722,0,0,0,55,7.671C49.713,25.795,40.631,36.249,27.262,39.564v-.3a2.66,2.66,0,0,0-2.66-2.649H2.665A2.666,2.666,0,0,0,0,39.261V102.8a2.654,2.654,0,0,0,2.665,2.644ZM28.176,44.8C43.694,41.131,54.165,29.432,60.1,9.115a5.327,5.327,0,0,1,3.336-3.548,5.011,5.011,0,0,1,4.54.552c7.2,4.909,7.1,15.324-.32,32.766a2.65,2.65,0,0,0,2.438,3.69H90.287A7.328,7.328,0,0,1,95.97,45c1.484,1.83,2.328,4.647-2.693,11.563h.006a2.659,2.659,0,0,0,.1,3.25c2.773,3.327,4.007,6.169,3.672,8.212V68.02a5.765,5.765,0,0,1-3.038,3.787,2.676,2.676,0,0,0-.818,3.672c2.382,3.689,3.26,6.668,2.632,8.889-.487,1.707-1.939,3.12-4.453,4.313h.006a2.652,2.652,0,0,0-1.262,3.526c1.787,3.84,2.285,6.738,1.468,8.585v-.006a6,6,0,0,1-3.992,2.969,99.177,99.177,0,0,1-30.7,1.111,32.161,32.161,0,0,1-11.966-4.02l-6.933-3.938a16.979,16.979,0,0,0-8.32-2.194H28.288ZM5.312,41.89,22,41.9v58.24H5.269Z" transform="translate(0 0.001)" fill="#026bbb" stroke="#fff" stroke-width="1"/>
  </g>
</svg>
