<svg width="200" height="200" viewBox="0 0 200 200" fill="none" xmlns="http://www.w3.org/2000/svg">
<g clip-path="url(#clip0_6_36)">
<path d="M91.627 12.5V27.724L75.12 19.471L67.236 35.242L91.627 47.349V84.579L59.348 65.873L60.998 38.727L43.574 37.812L42.474 56.151L29.269 48.451L20.465 63.67L33.67 71.19L18.448 81.461L27.985 95.95L50.548 81.094L82.828 99.618L50.548 118.142L27.985 103.286L18.448 117.775L33.671 128.046L20.466 135.566L29.271 150.789L42.476 143.089L43.576 161.43L61 160.511L59.348 133.367L91.628 114.658V151.891L67.237 163.991L75.122 179.766L91.629 171.513V186.734H109.048V171.515L125.371 179.768L133.259 163.993L109.048 151.891V114.657L141.148 133.366L139.497 160.508L156.921 161.427L158.021 143.086L171.226 150.786L180.026 135.563L166.821 128.043L182.048 117.775L172.511 103.286L149.948 118.142L117.671 99.618L149.948 81.094L172.51 95.95L182.048 81.461L166.824 71.19L180.029 63.67L171.229 48.447L158.024 56.147L156.924 37.808L139.5 38.723L141.148 65.873L109.048 84.579V47.349L133.26 35.242L125.374 19.471L109.048 27.724V12.5H91.627Z" fill="white" stroke="#FFC733" stroke-width="5"/>
</g>
<defs>
<clipPath id="clip0_6_36">
<rect width="170.494" height="179.237" fill="white" transform="translate(15 10)"/>
</clipPath>
</defs>
</svg>
