<svg width="200" height="200" viewBox="0 0 200 200" fill="none" xmlns="http://www.w3.org/2000/svg">
<g clip-path="url(#clip0_1_6)">
<path d="M90.6213 5V21.602L72.6614 12.6019L64.0828 29.7999L90.6213 43.0021V83.5995L55.4998 63.2021L57.2955 33.5997L38.3352 32.6015L37.1401 52.5996L22.7753 44.1999L13.1948 60.7997L27.5626 68.9998L11 80.1982L21.3765 95.9979L45.9216 79.7982L81.0423 99.9996L45.9216 120.2L21.3765 104L11 119.8L27.5626 130.999L13.1948 139.203L22.7753 155.803L37.143 147.405L38.3382 167.405L57.2985 166.403L55.5028 136.805L90.6243 116.403V157.005L64.0828 170.2L72.6614 187.402L90.6213 178.402V195H109.582V178.402L127.342 187.403L135.925 170.201L109.579 157.002V116.4L144.5 136.802L142.704 166.4L161.665 167.401L162.864 147.401L177.232 155.799L186.807 139.203L172.439 131.003L189.001 119.803L178.623 104L154.081 120.2L118.958 99.9996L154.081 79.7996L178.623 95.9994L189 80.1982L172.437 68.9983L186.807 60.7997L177.23 44.1999L162.862 52.5996L161.663 32.6015L142.702 33.5997L144.498 63.2021L109.579 83.5995V43.0021L135.922 29.7999L127.339 12.6019L109.579 21.602V5H90.6213Z" fill="white"/>
</g>
<defs>
<clipPath id="clip0_1_6">
<rect width="178" height="190" fill="white" transform="translate(11 5)"/>
</clipPath>
</defs>
</svg>
