<svg width="200" height="200" viewBox="0 0 200 200" fill="none" xmlns="http://www.w3.org/2000/svg">
<g clip-path="url(#clip0_6_34)">
<mask id="mask0_6_34" style="mask-type:luminance" maskUnits="userSpaceOnUse" x="16" y="16" width="168" height="168">
<path d="M183.077 16H16V183.075H183.077V16Z" fill="white"/>
</mask>
<g mask="url(#mask0_6_34)">
<path d="M99.539 108.7C108.76 108.699 117.603 105.035 124.123 98.5147C130.643 91.9943 134.306 83.151 134.306 73.93C134.306 49.819 99.539 16 99.539 16C99.539 16 64.769 49.906 64.769 73.93C64.7701 83.1513 68.4337 91.9945 74.9541 98.5149C81.4745 105.035 90.3178 108.699 99.539 108.7ZM78.568 75.744C78.9369 75.6571 79.3194 75.645 79.693 75.7086C80.0666 75.7722 80.4237 75.91 80.743 76.114C81.0624 76.3181 81.3376 76.5841 81.5523 76.8963C81.767 77.2086 81.9169 77.5608 81.993 77.932C82.8498 82.0383 85.0519 85.7413 88.2507 88.4549C91.4495 91.1684 95.4621 92.7372 99.653 92.913C100.419 92.9524 101.138 93.2919 101.655 93.8579C102.172 94.4239 102.446 95.1709 102.416 95.937C102.379 96.6756 102.059 97.3716 101.523 97.8812C100.987 98.3907 100.276 98.6749 99.536 98.675H99.42C93.9494 98.4512 88.7097 96.4088 84.5308 92.8711C80.3519 89.3334 77.4727 84.5027 76.349 79.144C76.2711 78.775 76.2667 78.3943 76.3361 78.0236C76.4055 77.6529 76.5473 77.2996 76.7534 76.9838C76.9595 76.668 77.2259 76.3959 77.5372 76.1832C77.8486 75.9704 78.1989 75.8212 78.568 75.744Z" fill="white"/>
<path d="M16 136.769V183.075H183.077V136.769C169.149 136.769 169.149 148.292 155.222 148.292C141.295 148.292 141.294 136.769 127.367 136.769C113.44 136.769 113.446 148.292 99.525 148.292C85.604 148.292 85.6 136.769 71.677 136.769C57.754 136.769 57.756 148.292 43.835 148.292C29.914 148.292 29.921 136.769 16 136.769Z" fill="white"/>
</g>
</g>
<defs>
<clipPath id="clip0_6_34">
<rect width="167.077" height="167.075" fill="white" transform="translate(16 16)"/>
</clipPath>
</defs>
</svg>
